<?xml version="1.0" encoding="UTF-8"?>
<svg xmlns="http://www.w3.org/2000/svg" version="1.1" viewBox="0 0 200 200" fill="#2dd4e8">
  <path d="M194.8,40.4l-26.1-26.8c-1.3-1.3-3.3-1.4-4.8-.2l-50.9,41.4c-.8.6-1.3,1.6-1.3,2.5s.3,1.9,1,2.6l26.1,26.8c.7.7,1.6,1,2.5,1s1.6-.2,2.2-.8l50.9-41.4c.8-.6,1.3-1.6,1.3-2.5s-.3-1.9-1-2.6h.1ZM141.6,79.4l-21.2-21.6,19.7-16,21.2,21.6-19.7,16ZM166.8,59l-21.2-21.6,20.2-16.5,21.2,21.6-20.2,16.5h0Z"/>
  <path d="M61.2,110.3c-1.3-1.3-3.3-1.4-4.8-.2L5.5,151.5c-.8.6-1.3,1.6-1.3,2.5s.3,1.9,1,2.6l26.1,26.8c.7.7,1.6,1,2.5,1s1.6-.2,2.2-.8l50.9-41.4c.8-.6,1.3-1.6,1.3-2.5s-.3-1.9-1-2.6l-26.1-26.8h.1ZM34.2,176.2l-21.2-21.6,19.7-16,21.2,21.6-19.7,16ZM59.4,155.7l-21.2-21.6,20.2-16.5,21.2,21.6-20.2,16.5Z"/>
  <path d="M139.1,133.2c6.7-7.4,10.9-15.4,10.9-21.4s-1.5-5.8-2.7-7l-45.2-44.2c-3.2-3.1-9.2-3.5-16.5-.2l-3.7-18.4c-.1-.7-.5-1.4-1-1.9-6.1-5.9-22.8-3.8-34.4,7.5-6.7,6.6-11.2,16.4-11.2,24.6s1.1,7.4,3.2,9.5c.6.5,1.1.8,1.9,1l18.9,3.5c-1.5,3.3-2.4,6.4-2.4,9.2s1.5,5.8,2.7,7l45.2,44.2c1.7,1.6,4.1,2.5,7.1,2.5,5.7,0,13.4-3.2,21.8-10.6l11.1,10.9c.7.7,1.6,1,2.5,1s1.9-.3,2.6-1.1c1.4-1.5,1.4-3.8,0-5.1l-11-10.8h.1ZM43.3,75.8c-.3-.7-.6-1.9-.6-3.5,0-4.8,2.3-12.8,8.9-19.3,8.5-8.3,19.7-9.7,23.3-8.1l3.8,19.4c-2.7,1.8-5.5,4.2-8.3,7-2.7,2.6-5.1,5.5-7.1,8.2l-20-3.8h0ZM64.4,95.4c0-3.8,3.5-11.3,11.2-18.9,10-9.7,19.4-12.4,21.3-10.6l38.1,37.2c-5.5,1.5-12.2,5.5-19.2,12.4-6.4,6.3-10.9,13.2-12.6,19l-38.2-37.3c-.5-.3-.5-1.3-.5-1.7h-.1ZM110.1,141.3c-.5-.3-.5-1.3-.5-1.7,0-3.8,3.5-11.3,11.2-18.9,8-7.9,15.8-11.1,19.4-11.1s1.5.2,1.8.6c.5.3.5,1.3.5,1.7,0,3.3-2.7,9.6-8.8,16.2l-5.1-5c-1.5-1.4-3.8-1.4-5.1,0-1.4,1.5-1.4,3.8,0,5.1l5,4.9c-8.9,7.7-16.8,9.7-18.5,8h.1Z"/>
</svg>
